<?xml version="1.0" encoding="UTF-8" standalone="no"?>
<svg
   width="1080pt"
   height="1080pt"
   viewBox="0 0 1080 1080"
   version="1.1"
   id="svg2"
   xmlns="http://www.w3.org/2000/svg"
   xmlns:svg="http://www.w3.org/2000/svg">
  <defs
     id="defs2" />
  <rect
     x="-108"
     y="-108"
     width="1296"
     height="1296"
     fill="rgb(16.078186%, 38.430786%, 67.843628%)"
     fill-opacity="1"
     id="rect1" />
  <path
     fill-rule="nonzero"
     fill="rgb(100%, 100%, 100%)"
     fill-opacity="1"
     d="M 870.957031 555.078125 C 870.957031 618.101562 854.109375 677.191406 824.664062 728.09375 C 794.273438 780.621094 750.476562 824.425781 697.941406 854.804688 C 697.425781 855.105469 696.921875 855.394531 696.410156 855.683594 C 650.273438 882.066406 597.3125 872.339844 562.609375 841.117188 C 559.636719 838.445312 556.800781 835.617188 554.113281 832.632812 L 554.054688 832.566406 C 536.179688 812.730469 524.925781 786.320312 524.925781 756.050781 L 524.925781 728.09375 C 620.472656 728.09375 697.941406 650.632812 697.941406 555.078125 C 697.941406 552.414062 697.882812 549.765625 697.757812 547.136719 C 697.734375 546.523438 697.707031 545.914062 697.667969 545.300781 C 697.632812 544.652344 697.59375 544.015625 697.550781 543.390625 C 697.519531 542.851562 697.484375 542.304688 697.433594 541.769531 C 697.378906 541.039062 697.320312 540.3125 697.253906 539.59375 C 697.253906 539.550781 697.253906 539.511719 697.246094 539.476562 C 697.203125 538.914062 697.15625 538.359375 697.089844 537.796875 C 697.023438 537.144531 696.957031 536.480469 696.882812 535.828125 C 696.808594 535.152344 696.734375 534.480469 696.652344 533.804688 C 695.949219 527.707031 694.90625 521.5625 693.523438 515.375 C 679.253906 451.175781 628.835938 400.761719 564.640625 386.484375 C 558.449219 385.105469 552.292969 384.0625 546.199219 383.359375 C 545.519531 383.277344 544.847656 383.203125 544.171875 383.128906 C 543.515625 383.054688 542.855469 382.984375 542.203125 382.921875 C 541.640625 382.855469 541.085938 382.804688 540.523438 382.761719 C 540.492188 382.761719 540.449219 382.753906 540.40625 382.753906 C 539.6875 382.6875 538.960938 382.632812 538.234375 382.574219 C 537.679688 382.523438 537.117188 382.480469 536.5625 382.457031 C 535.957031 382.417969 535.347656 382.375 534.734375 382.339844 L 534.691406 382.339844 C 534.105469 382.308594 533.519531 382.273438 532.941406 382.25 C 530.285156 382.125 527.613281 382.066406 524.925781 382.066406 C 505.511719 382.066406 486.851562 385.261719 469.433594 391.15625 C 467.421875 391.835938 465.429688 392.546875 463.460938 393.308594 C 462.136719 393.804688 460.832031 394.328125 459.523438 394.855469 C 458.226562 395.386719 456.933594 395.929688 455.652344 396.492188 C 455.007812 396.773438 454.363281 397.0625 453.71875 397.351562 C 452.445312 397.933594 451.179688 398.519531 449.921875 399.125 C 391.925781 427.0625 351.910156 486.402344 351.910156 555.078125 L 323.933594 555.078125 C 292.703125 555.078125 265.589844 543.089844 245.550781 524.226562 C 243.878906 522.652344 242.257812 521.03125 240.6875 519.359375 C 208.03125 484.707031 197.417969 430.613281 224.308594 383.597656 C 224.597656 383.085938 224.886719 382.582031 225.183594 382.066406 C 255.574219 329.539062 299.371094 285.734375 351.910156 255.347656 C 402.800781 225.902344 461.890625 209.050781 524.925781 209.050781 C 587.957031 209.050781 647.046875 225.902344 697.941406 255.347656 C 750.476562 285.734375 794.273438 329.539062 824.664062 382.066406 C 854.109375 432.960938 870.957031 492.050781 870.957031 555.078125 "
     id="path1" />
  <path
     fill-rule="nonzero"
     fill="rgb(97.254944%, 86.66687%, 43.528748%)"
     fill-opacity="1"
     d="M 554.054688 832.566406 L 524.925781 803.453125 L 449.523438 728.09375 L 351.910156 630.523438 L 276.417969 555.078125 L 245.550781 524.226562 C 265.589844 543.089844 292.703125 555.078125 323.933594 555.078125 L 442.792969 555.078125 C 488.152344 555.078125 524.925781 591.847656 524.925781 637.207031 L 524.925781 756.050781 C 524.925781 786.320312 536.179688 812.730469 554.054688 832.566406 "
     id="path2" />
</svg>
