<svg width="200" height="200" viewBox="0 0 200 200" fill="none" xmlns="http://www.w3.org/2000/svg">
  <!-- Blue rounded square background -->
  <rect width="200" height="200" rx="30" fill="#3B6CB4"/>
  
  <!-- White "B" letter - simplified -->
  <path d="M65 60 L65 130 L115 130 C128 130, 138 120, 138 107 C138 97, 132 90, 123 87 C130 84, 135 77, 135 68 C135 55, 125 60, 112 60 Z" fill="white"/>
  <path d="M80 75 L105 75 C112 75, 118 79, 118 86 C118 93, 112 97, 105 97 L80 97 Z" fill="#3B6CB4"/>
  <path d="M80 107 L110 107 C117 107, 123 111, 123 118 C123 125, 117 115, 110 115 L80 115 Z" fill="#3B6CB4"/>
  
  <!-- Yellow accent circle -->
  <circle cx="155" cy="45" r="10" fill="#E9C500"/>
  
  <!-- Yellow accent curve -->
  <path d="M145 55 Q165 60, 165 80 Q165 95, 150 100" stroke="#E9C500" stroke-width="8" stroke-linecap="round" fill="none"/>
  
  <!-- Small bed icon detail at bottom -->
  <rect x="70" y="150" width="60" height="6" rx="3" fill="white" opacity="0.5"/>
  <rect x="80" y="160" width="6" height="12" rx="2" fill="white" opacity="0.5"/>
  <rect x="114" y="160" width="6" height="12" rx="2" fill="white" opacity="0.5"/>
</svg>
