<?xml version="1.0" encoding="UTF-8" standalone="no"?>
<svg
   width="100%"
   height="100%"
   viewBox="124.695312 311.109375 830.6093760000001 457.78125"
   version="1.1"
   id="svg14"
   xmlns="http://www.w3.org/2000/svg"
   xmlns:svg="http://www.w3.org/2000/svg">
  <defs
     id="defs14" />
  <path
     fill-rule="nonzero"
     fill="rgb(100%, 100%, 100%)"
     fill-opacity="1"
     d="M 683.835938 472.039062 C 683.835938 499.894531 676.386719 526.011719 663.375 548.507812 C 649.941406 571.726562 630.585938 591.085938 607.367188 604.511719 C 607.140625 604.644531 606.917969 604.769531 606.691406 604.898438 C 586.300781 616.5625 562.894531 612.261719 547.554688 598.460938 C 546.242188 597.28125 544.988281 596.03125 543.800781 594.710938 L 543.773438 594.683594 C 535.875 585.914062 530.898438 574.242188 530.898438 560.863281 L 530.898438 548.507812 C 573.128906 548.507812 607.367188 514.273438 607.367188 472.039062 C 607.367188 470.863281 607.339844 469.695312 607.285156 468.53125 C 607.273438 468.261719 607.265625 467.992188 607.246094 467.71875 C 607.230469 467.433594 607.214844 467.152344 607.195312 466.875 C 607.179688 466.636719 607.164062 466.398438 607.144531 466.160156 C 607.117188 465.839844 607.09375 465.515625 607.0625 465.199219 C 607.0625 465.179688 607.0625 465.160156 607.058594 465.148438 C 607.039062 464.898438 607.019531 464.652344 606.988281 464.40625 C 606.960938 464.117188 606.933594 463.824219 606.898438 463.535156 C 606.867188 463.234375 606.832031 462.9375 606.796875 462.640625 C 606.484375 459.945312 606.023438 457.230469 605.414062 454.492188 C 599.109375 426.121094 576.824219 403.839844 548.453125 397.527344 C 545.714844 396.917969 542.996094 396.457031 540.300781 396.148438 C 540.003906 396.109375 539.707031 396.078125 539.40625 396.046875 C 539.117188 396.011719 538.824219 395.984375 538.535156 395.953125 C 538.285156 395.925781 538.042969 395.902344 537.792969 395.882812 C 537.777344 395.882812 537.761719 395.882812 537.742188 395.882812 C 537.425781 395.851562 537.101562 395.824219 536.78125 395.800781 C 536.535156 395.777344 536.289062 395.761719 536.042969 395.75 C 535.777344 395.730469 535.503906 395.714844 535.234375 395.699219 L 535.21875 395.699219 C 534.957031 395.683594 534.695312 395.667969 534.441406 395.65625 C 533.269531 395.601562 532.085938 395.578125 530.898438 395.578125 C 522.320312 395.578125 514.074219 396.988281 506.375 399.59375 C 505.484375 399.894531 504.605469 400.210938 503.734375 400.546875 C 503.148438 400.765625 502.570312 400.996094 501.996094 401.230469 C 501.421875 401.464844 500.851562 401.703125 500.285156 401.953125 C 500 402.078125 499.714844 402.203125 499.429688 402.332031 C 498.867188 402.589844 498.304688 402.847656 497.75 403.113281 C 472.117188 415.464844 454.433594 441.6875 454.433594 472.039062 L 442.070312 472.039062 C 428.265625 472.039062 416.28125 466.742188 407.425781 458.40625 C 406.6875 457.710938 405.96875 456.996094 405.273438 456.257812 C 390.84375 440.9375 386.152344 417.03125 398.035156 396.253906 C 398.164062 396.027344 398.292969 395.804688 398.425781 395.578125 C 411.855469 372.359375 431.210938 353 454.433594 339.570312 C 476.925781 326.554688 503.039062 319.109375 530.898438 319.109375 C 558.757812 319.109375 584.875 326.554688 607.367188 339.570312 C 630.585938 353 649.941406 372.359375 663.375 395.578125 C 676.386719 418.070312 683.835938 444.1875 683.835938 472.039062 "
     id="path1" />
  <path
     fill-rule="nonzero"
     fill="rgb(97.254944%, 86.66687%, 43.528748%)"
     fill-opacity="1"
     d="M 543.773438 594.683594 L 530.898438 581.8125 L 497.574219 548.507812 L 454.433594 505.386719 L 421.066406 472.039062 L 407.425781 458.40625 C 416.28125 466.742188 428.265625 472.039062 442.070312 472.039062 L 494.601562 472.039062 C 514.648438 472.039062 530.898438 488.292969 530.898438 508.339844 L 530.898438 560.863281 C 530.898438 574.242188 535.875 585.914062 543.773438 594.683594 "
     id="path2" />
  <path
     fill-rule="nonzero"
     fill="rgb(100%, 100%, 100%)"
     fill-opacity="1"
     d="M 255.0625 557.570312 C 290.808594 557.570312 308.691406 544.570312 308.691406 518.566406 C 308.691406 506.152344 304.257812 496.554688 295.394531 489.757812 C 286.527344 482.964844 272.636719 479.5625 253.730469 479.5625 L 206.304688 479.5625 L 206.304688 557.570312 Z M 251.515625 433.023438 C 267.761719 433.023438 279.949219 430.804688 288.082031 426.371094 C 296.203125 421.941406 300.269531 414.40625 300.269531 403.769531 C 300.269531 392.539062 296.425781 384.5625 288.746094 379.832031 C 281.058594 375.109375 269.246094 372.742188 253.285156 372.742188 L 206.304688 372.742188 L 206.304688 433.023438 Z M 143.804688 319.109375 L 260.820312 319.109375 C 296.28125 319.109375 322.058594 326.203125 338.167969 340.386719 C 354.269531 354.570312 362.324219 372.742188 362.324219 394.902344 C 362.324219 409.085938 357.667969 421.347656 348.363281 431.695312 C 339.050781 442.039062 326.867188 449.273438 311.796875 453.414062 C 328.042969 457.550781 342 465.675781 353.679688 477.785156 C 365.351562 489.90625 371.1875 504.980469 371.1875 522.996094 C 371.1875 537.179688 367.714844 551 360.769531 564.441406 C 353.828125 577.890625 342.15625 589.113281 325.753906 598.125 C 309.355469 607.144531 288.003906 611.644531 261.710938 611.644531 L 143.804688 611.644531 Z M 143.804688 319.109375 "
     id="path3" />
  <path
     fill-rule="nonzero"
     fill="rgb(100%, 100%, 100%)"
     fill-opacity="1"
     d="M 831.179688 557.570312 C 866.925781 557.570312 884.808594 544.570312 884.808594 518.566406 C 884.808594 506.152344 880.375 496.554688 871.511719 489.757812 C 862.644531 482.964844 848.753906 479.5625 829.847656 479.5625 L 782.421875 479.5625 L 782.421875 557.570312 Z M 827.632812 433.023438 C 843.878906 433.023438 856.066406 430.804688 864.199219 426.371094 C 872.320312 421.941406 876.386719 414.40625 876.386719 403.769531 C 876.386719 392.539062 872.542969 384.5625 864.863281 379.832031 C 857.175781 375.109375 845.363281 372.742188 829.402344 372.742188 L 782.421875 372.742188 L 782.421875 433.023438 Z M 719.921875 319.109375 L 836.9375 319.109375 C 872.398438 319.109375 898.175781 326.203125 914.285156 340.386719 C 930.386719 354.570312 938.441406 372.742188 938.441406 394.902344 C 938.441406 409.085938 933.785156 421.347656 924.480469 431.695312 C 915.167969 442.039062 902.984375 449.273438 887.914062 453.414062 C 904.160156 457.550781 918.117188 465.675781 929.796875 477.785156 C 941.46875 489.90625 947.304688 504.980469 947.304688 522.996094 C 947.304688 537.179688 943.832031 551 936.886719 564.441406 C 929.945312 577.890625 918.273438 589.113281 901.871094 598.125 C 885.472656 607.144531 864.121094 611.644531 837.828125 611.644531 L 719.921875 611.644531 Z M 719.921875 319.109375 "
     id="path4" />
  <path
     fill-rule="nonzero"
     fill="rgb(100%, 100%, 100%)"
     fill-opacity="1"
     d="M 148.707031 746.113281 L 174.980469 746.113281 C 180.542969 746.113281 185.078125 744.835938 188.59375 742.28125 C 192.101562 739.726562 193.863281 736.304688 193.863281 732.015625 C 193.863281 729.921875 193.40625 727.957031 192.492188 726.132812 C 191.578125 724.308594 190.304688 722.757812 188.664062 721.480469 C 187.019531 720.203125 185.105469 719.199219 182.917969 718.46875 C 180.726562 717.742188 178.355469 717.375 175.800781 717.375 L 148.707031 717.375 Z M 148.707031 704.507812 L 173.332031 704.507812 C 177.992188 704.507812 181.820312 703.277344 184.828125 700.816406 C 187.839844 698.355469 189.347656 695.070312 189.347656 690.960938 C 189.347656 686.949219 187.679688 683.710938 184.351562 681.246094 C 181.023438 678.785156 176.804688 677.550781 171.695312 677.550781 L 148.707031 677.550781 Z M 132.695312 759.523438 L 132.695312 663.730469 L 172.925781 663.730469 C 177.664062 663.730469 182.03125 664.371094 185.996094 665.648438 C 189.964844 666.925781 193.386719 668.726562 196.253906 671.050781 C 199.132812 673.378906 201.390625 676.140625 203.03125 679.332031 C 204.671875 682.527344 205.492188 686.039062 205.492188 689.867188 C 205.492188 694.339844 204.261719 698.445312 201.800781 702.183594 C 199.335938 705.925781 196.007812 708.753906 191.808594 710.667969 C 197.558594 712.496094 202.117188 715.457031 205.492188 719.5625 C 208.867188 723.667969 210.558594 728.460938 210.558594 733.933594 C 210.558594 737.675781 209.753906 741.117188 208.160156 744.265625 C 206.566406 747.410156 204.332031 750.101562 201.457031 752.339844 C 198.585938 754.574219 195.183594 756.328125 191.261719 757.605469 C 187.335938 758.882812 183.003906 759.523438 178.265625 759.523438 Z M 132.695312 759.523438 "
     id="path5" />
  <path
     fill-rule="nonzero"
     fill="rgb(100%, 100%, 100%)"
     fill-opacity="1"
     d="M 275.554688 719.292969 C 275.101562 713.816406 273.117188 709.503906 269.601562 706.359375 C 266.09375 703.210938 261.550781 701.636719 255.988281 701.636719 C 250.789062 701.636719 246.433594 703.257812 242.921875 706.492188 C 239.40625 709.734375 237.238281 714 236.421875 719.292969 Z M 236.695312 730.371094 C 237.789062 735.757812 240.292969 740.023438 244.21875 743.171875 C 248.140625 746.316406 253.023438 747.890625 258.859375 747.890625 C 262.78125 747.890625 266.527344 747.273438 270.082031 746.042969 C 273.640625 744.8125 276.558594 743.054688 278.839844 740.773438 L 286.226562 750.898438 C 282.675781 754.277344 278.476562 756.785156 273.640625 758.425781 C 268.804688 760.070312 263.5625 760.890625 257.902344 760.890625 C 252.339844 760.890625 247.230469 760 242.578125 758.21875 C 237.925781 756.445312 233.910156 753.933594 230.535156 750.695312 C 227.160156 747.457031 224.535156 743.625 222.667969 739.199219 C 220.796875 734.777344 219.859375 729.917969 219.859375 724.628906 C 219.859375 719.425781 220.753906 714.660156 222.535156 710.328125 C 224.308594 705.996094 226.769531 702.234375 229.921875 699.035156 C 233.066406 695.847656 236.832031 693.359375 241.207031 691.578125 C 245.589844 689.800781 250.378906 688.910156 255.578125 688.910156 C 260.78125 688.910156 265.542969 689.78125 269.875 691.511719 C 274.207031 693.246094 277.953125 695.640625 281.097656 698.695312 C 284.242188 701.753906 286.707031 705.398438 288.488281 709.644531 C 290.265625 713.882812 291.160156 718.5625 291.160156 723.667969 C 291.160156 724.855469 291.089844 725.972656 290.949219 727.019531 C 290.816406 728.070312 290.65625 729.191406 290.46875 730.371094 Z M 236.695312 730.371094 "
     id="path6" />
  <path
     fill-rule="nonzero"
     fill="rgb(100%, 100%, 100%)"
     fill-opacity="1"
     d="M 354.101562 709.027344 C 351.453125 706.65625 348.078125 704.832031 343.976562 703.554688 C 339.867188 702.277344 335.625 701.636719 331.25 701.636719 C 326.871094 701.636719 323.445312 702.320312 320.984375 703.691406 C 318.523438 705.058594 317.289062 706.929688 317.289062 709.300781 C 317.289062 711.214844 318.316406 712.8125 320.371094 714.089844 C 322.425781 715.367188 324.996094 716.554688 328.105469 717.648438 C 331.203125 718.742188 334.554688 719.835938 338.15625 720.929688 C 341.761719 722.027344 345.117188 723.417969 348.21875 725.105469 C 351.320312 726.792969 353.898438 728.894531 355.949219 731.398438 C 358.003906 733.910156 359.027344 737.078125 359.027344 740.910156 C 359.027344 743.917969 358.316406 746.65625 356.90625 749.121094 C 355.492188 751.585938 353.460938 753.683594 350.816406 755.414062 C 348.167969 757.152344 345.003906 758.496094 341.308594 759.453125 C 337.617188 760.410156 333.480469 760.890625 328.921875 760.890625 C 323.445312 760.890625 318.085938 760.226562 312.84375 758.90625 C 307.601562 757.585938 303.242188 755.828125 299.777344 753.636719 L 303.472656 740.089844 C 307.121094 742.644531 311.222656 744.628906 315.785156 746.042969 C 320.34375 747.457031 324.816406 748.164062 329.195312 748.164062 C 333.480469 748.164062 336.882812 747.527344 339.390625 746.25 C 341.898438 744.972656 343.152344 743.238281 343.152344 741.050781 C 343.152344 739.132812 342.125 737.582031 340.078125 736.394531 C 338.023438 735.210938 335.445312 734.136719 332.34375 733.179688 C 329.238281 732.222656 325.914062 731.21875 322.355469 730.167969 C 318.796875 729.121094 315.464844 727.773438 312.363281 726.132812 C 309.265625 724.492188 306.6875 722.417969 304.632812 719.90625 C 302.578125 717.398438 301.550781 714.226562 301.550781 710.394531 C 301.550781 707.109375 302.257812 704.148438 303.675781 701.5 C 305.085938 698.855469 307.078125 696.597656 309.628906 694.726562 C 312.179688 692.859375 315.304688 691.421875 319 690.417969 C 322.695312 689.414062 326.777344 688.910156 331.25 688.910156 C 336.359375 688.910156 341.355469 689.59375 346.234375 690.960938 C 351.113281 692.332031 355.148438 694.109375 358.34375 696.300781 Z M 354.101562 709.027344 "
     id="path7" />
  <path
     fill-rule="nonzero"
     fill="rgb(100%, 100%, 100%)"
     fill-opacity="1"
     d="M 413.214844 703.003906 L 393.234375 703.003906 L 393.234375 734.890625 C 393.234375 743.554688 397.203125 747.890625 405.144531 747.890625 C 406.695312 747.890625 408.359375 747.84375 410.132812 747.753906 C 411.914062 747.660156 413.851562 747.390625 415.953125 746.929688 L 416.632812 759.660156 C 415.449219 759.839844 414.152344 760.023438 412.738281 760.203125 C 411.320312 760.386719 409.953125 760.523438 408.632812 760.617188 C 407.304688 760.707031 406.074219 760.777344 404.933594 760.824219 C 403.792969 760.867188 402.859375 760.890625 402.132812 760.890625 C 385.988281 760.890625 377.910156 752.269531 377.910156 735.027344 L 377.910156 703.003906 L 365.457031 703.003906 L 365.457031 690.28125 L 377.910156 690.28125 L 377.910156 670.574219 L 393.234375 670.574219 L 393.234375 690.28125 L 413.214844 690.28125 Z M 413.214844 703.003906 "
     id="path8" />
  <path
     fill-rule="nonzero"
     fill="rgb(100%, 100%, 100%)"
     fill-opacity="1"
     d="M 494.910156 701.910156 C 491.804688 701.910156 488.933594 702.460938 486.285156 703.554688 C 483.640625 704.648438 481.382812 706.222656 479.511719 708.273438 C 477.640625 710.328125 476.179688 712.746094 475.136719 715.527344 C 474.082031 718.3125 473.558594 721.433594 473.558594 724.898438 C 473.558594 728.277344 474.082031 731.378906 475.136719 734.207031 C 476.179688 737.035156 477.640625 739.453125 479.511719 741.457031 C 481.382812 743.46875 483.640625 745.039062 486.285156 746.179688 C 488.933594 747.320312 491.804688 747.890625 494.910156 747.890625 C 498.101562 747.890625 500.996094 747.320312 503.601562 746.179688 C 506.199219 745.039062 508.429688 743.46875 510.304688 741.457031 C 512.175781 739.453125 513.628906 737.035156 514.683594 734.207031 C 515.730469 731.378906 516.257812 728.277344 516.257812 724.898438 C 516.257812 721.433594 515.730469 718.3125 514.683594 715.527344 C 513.628906 712.746094 512.175781 710.328125 510.304688 708.273438 C 508.429688 706.222656 506.199219 704.648438 503.601562 703.554688 C 500.996094 702.460938 498.101562 701.910156 494.910156 701.910156 M 494.910156 760.890625 C 489.527344 760.890625 484.550781 759.976562 479.996094 758.152344 C 475.429688 756.328125 471.484375 753.820312 468.15625 750.628906 C 464.824219 747.433594 462.222656 743.625 460.355469 739.199219 C 458.484375 734.777344 457.554688 729.964844 457.554688 724.765625 C 457.554688 719.5625 458.484375 714.773438 460.355469 710.394531 C 462.222656 706.015625 464.824219 702.230469 468.15625 699.035156 C 471.484375 695.847656 475.429688 693.359375 479.996094 691.578125 C 484.550781 689.800781 489.527344 688.910156 494.910156 688.910156 C 500.289062 688.910156 505.261719 689.800781 509.828125 691.578125 C 514.382812 693.359375 518.332031 695.847656 521.660156 699.035156 C 524.992188 702.230469 527.589844 706.015625 529.464844 710.394531 C 531.332031 714.773438 532.265625 719.5625 532.265625 724.765625 C 532.265625 729.964844 531.332031 734.777344 529.464844 739.199219 C 527.589844 743.625 524.992188 747.457031 521.660156 750.695312 C 518.332031 753.933594 514.382812 756.441406 509.828125 758.21875 C 505.261719 760 500.289062 760.890625 494.910156 760.890625 "
     id="path9" />
  <path
     fill-rule="nonzero"
     fill="rgb(100%, 100%, 100%)"
     fill-opacity="1"
     d="M 586.183594 669.890625 C 585.089844 669.710938 583.601562 669.59375 581.730469 669.550781 C 579.863281 669.503906 578.382812 669.480469 577.285156 669.480469 C 572.636719 669.480469 569.011719 670.894531 566.410156 673.722656 C 563.804688 676.550781 562.511719 680.425781 562.511719 685.351562 L 562.511719 690.28125 L 584.132812 690.28125 L 584.132812 703.003906 L 562.511719 703.003906 L 562.511719 759.523438 L 547.179688 759.523438 L 547.179688 703.003906 L 503.878906 703.003906 L 503.878906 690.28125 L 547.179688 690.28125 L 547.179688 686.175781 C 547.179688 681.796875 547.84375 677.804688 549.164062 674.199219 C 550.484375 670.597656 552.359375 667.496094 554.777344 664.894531 C 557.195312 662.296875 560.066406 660.289062 563.398438 658.871094 C 566.726562 657.460938 570.445312 656.753906 574.550781 656.753906 C 576.007812 656.753906 577.878906 656.820312 580.164062 656.960938 C 582.441406 657.097656 584.40625 657.257812 586.046875 657.4375 Z M 586.183594 669.890625 "
     id="path10" />
  <path
     fill-rule="nonzero"
     fill="rgb(100%, 100%, 100%)"
     fill-opacity="1"
     d="M 648.71875 746.113281 L 674.988281 746.113281 C 680.550781 746.113281 685.09375 744.835938 688.609375 742.28125 C 692.121094 739.726562 693.875 736.304688 693.875 732.015625 C 693.875 729.921875 693.421875 727.957031 692.507812 726.132812 C 691.597656 724.308594 690.320312 722.757812 688.675781 721.480469 C 687.035156 720.203125 685.121094 719.199219 682.925781 718.46875 C 680.738281 717.742188 678.363281 717.375 675.8125 717.375 L 648.71875 717.375 Z M 648.71875 704.507812 L 673.351562 704.507812 C 678 704.507812 681.835938 703.277344 684.847656 700.816406 C 687.859375 698.355469 689.363281 695.070312 689.363281 690.960938 C 689.363281 686.949219 687.699219 683.710938 684.367188 681.246094 C 681.039062 678.785156 676.816406 677.550781 671.710938 677.550781 L 648.71875 677.550781 Z M 632.707031 759.523438 L 632.707031 663.730469 L 672.941406 663.730469 C 677.683594 663.730469 682.039062 664.371094 686.007812 665.648438 C 689.976562 666.925781 693.394531 668.726562 696.273438 671.050781 C 699.144531 673.378906 701.402344 676.140625 703.046875 679.332031 C 704.6875 682.527344 705.507812 686.039062 705.507812 689.867188 C 705.507812 694.339844 704.277344 698.445312 701.816406 702.183594 C 699.347656 705.925781 696.015625 708.753906 691.824219 710.667969 C 697.574219 712.496094 702.128906 715.457031 705.507812 719.5625 C 708.882812 723.667969 710.570312 728.460938 710.570312 733.933594 C 710.570312 737.675781 709.773438 741.117188 708.175781 744.265625 C 706.582031 747.410156 704.34375 750.101562 701.472656 752.339844 C 698.59375 754.574219 695.199219 756.328125 691.277344 757.605469 C 687.351562 758.882812 683.023438 759.523438 678.277344 759.523438 Z M 632.707031 759.523438 "
     id="path11" />
  <path
     fill-rule="nonzero"
     fill="rgb(100%, 100%, 100%)"
     fill-opacity="1"
     d="M 775.566406 719.292969 C 775.113281 713.816406 773.128906 709.503906 769.613281 706.359375 C 766.105469 703.210938 761.5625 701.636719 756 701.636719 C 750.796875 701.636719 746.441406 703.257812 742.933594 706.492188 C 739.417969 709.734375 737.25 714 736.433594 719.292969 Z M 736.707031 730.371094 C 737.796875 735.757812 740.304688 740.023438 744.226562 743.171875 C 748.152344 746.316406 753.03125 747.890625 758.871094 747.890625 C 762.792969 747.890625 766.539062 747.273438 770.089844 746.042969 C 773.652344 744.8125 776.566406 743.054688 778.851562 740.773438 L 786.238281 750.898438 C 782.683594 754.277344 778.488281 756.785156 773.652344 758.425781 C 768.816406 760.070312 763.570312 760.890625 757.914062 760.890625 C 752.347656 760.890625 747.238281 760 742.589844 758.21875 C 737.9375 756.445312 733.917969 753.933594 730.542969 750.695312 C 727.167969 747.457031 724.546875 743.625 722.675781 739.199219 C 720.808594 734.777344 719.871094 729.917969 719.871094 724.628906 C 719.871094 719.425781 720.765625 714.660156 722.542969 710.328125 C 724.316406 705.996094 726.78125 702.234375 729.929688 699.035156 C 733.078125 695.847656 736.839844 693.359375 741.214844 691.578125 C 745.601562 689.800781 750.390625 688.910156 755.589844 688.910156 C 760.789062 688.910156 765.554688 689.78125 769.886719 691.511719 C 774.21875 693.246094 777.964844 695.640625 781.109375 698.695312 C 784.253906 701.753906 786.714844 705.398438 788.496094 709.644531 C 790.277344 713.882812 791.167969 718.5625 791.167969 723.667969 C 791.167969 724.855469 791.097656 725.972656 790.957031 727.019531 C 790.824219 728.070312 790.664062 729.191406 790.480469 730.371094 Z M 736.707031 730.371094 "
     id="path12" />
  <path
     fill-rule="nonzero"
     fill="rgb(100%, 100%, 100%)"
     fill-opacity="1"
     d="M 837.414062 701.910156 C 834.3125 701.910156 831.488281 702.460938 828.929688 703.554688 C 826.378906 704.648438 824.191406 706.222656 822.363281 708.273438 C 820.542969 710.328125 819.125 712.746094 818.125 715.527344 C 817.113281 718.3125 816.617188 721.433594 816.617188 724.898438 C 816.617188 728.277344 817.113281 731.378906 818.125 734.207031 C 819.125 737.035156 820.542969 739.453125 822.363281 741.457031 C 824.191406 743.46875 826.351562 745.039062 828.867188 746.179688 C 831.375 747.320312 834.175781 747.890625 837.28125 747.890625 C 840.382812 747.890625 843.207031 747.320312 845.765625 746.179688 C 848.316406 745.039062 850.53125 743.46875 852.402344 741.457031 C 854.269531 739.453125 855.707031 737.035156 856.714844 734.207031 C 857.714844 731.378906 858.21875 728.277344 858.21875 724.898438 C 858.21875 721.433594 857.714844 718.3125 856.714844 715.527344 C 855.707031 712.746094 854.296875 710.328125 852.472656 708.273438 C 850.640625 706.222656 848.453125 704.648438 845.898438 703.554688 C 843.347656 702.460938 840.515625 701.910156 837.414062 701.910156 M 873.542969 656.890625 L 873.542969 759.519531 L 858.21875 759.519531 L 858.21875 751.3125 C 855.480469 754.234375 852.171875 756.558594 848.292969 758.289062 C 844.421875 760.023438 840.152344 760.890625 835.5 760.890625 C 830.390625 760.890625 825.695312 760 821.40625 758.21875 C 817.113281 756.441406 813.445312 753.933594 810.390625 750.695312 C 807.335938 747.457031 804.9375 743.625 803.207031 739.199219 C 801.472656 734.777344 800.605469 729.964844 800.605469 724.765625 C 800.605469 719.5625 801.472656 714.773438 803.207031 710.394531 C 804.9375 706.015625 807.355469 702.230469 810.460938 699.035156 C 813.5625 695.847656 817.253906 693.359375 821.542969 691.578125 C 825.832031 689.800781 830.480469 688.910156 835.5 688.910156 C 840.152344 688.910156 844.421875 689.757812 848.292969 691.441406 C 852.171875 693.132812 855.480469 695.433594 858.21875 698.351562 L 858.21875 656.890625 Z M 873.542969 656.890625 "
     id="path13" />
  <path
     fill-rule="nonzero"
     fill="rgb(100%, 100%, 100%)"
     fill-opacity="1"
     d="M 889.691406 690.28125 L 947.304688 690.28125 L 911.726562 746.65625 L 947.304688 746.65625 L 947.304688 759.519531 L 886.820312 759.519531 L 922.53125 703.140625 L 889.691406 703.140625 Z M 889.691406 690.28125 "
     id="path14" />
</svg>
